<?xml version="1.0" standalone="no"?>
<!DOCTYPE svg PUBLIC "-//W3C//DTD SVG 20010904//EN"
 "http://www.w3.org/TR/2001/REC-SVG-20010904/DTD/svg10.dtd">
<svg version="1.0" xmlns="http://www.w3.org/2000/svg"
 width="1046.000000pt" height="1046.000000pt" viewBox="0 0 1046.000000 1046.000000"
 preserveAspectRatio="xMidYMid meet">
<metadata>
Created by potrace 1.11, written by Peter Selinger 2001-2013
</metadata>
<g transform="translate(0.000000,1046.000000) scale(0.100000,-0.100000)"
fill="#000000" stroke="none">
<path d="M5037 8264 c-1 -1 -38 -5 -82 -9 -44 -3 -91 -8 -105 -10 -14 -3 -45
-7 -69 -10 -24 -3 -47 -7 -50 -9 -3 -2 -28 -7 -56 -11 -27 -3 -108 -22 -180
-41 -71 -19 -141 -37 -155 -40 -13 -3 -29 -9 -35 -14 -5 -4 -14 -9 -20 -9 -10
0 -79 -24 -120 -41 -11 -4 -47 -18 -80 -31 -93 -36 -308 -149 -431 -226 -398
-251 -736 -602 -977 -1014 -53 -90 -127 -240 -127 -257 0 -4 32 -8 72 -7 l72
0 54 105 c29 58 60 112 68 121 8 8 14 19 14 23 0 10 123 188 183 266 428 550
1075 935 1750 1040 196 31 244 35 452 34 252 0 343 -8 570 -49 132 -23 503
-145 591 -194 11 -5 66 -33 124 -62 245 -121 488 -297 695 -504 205 -204 373
-430 506 -681 l54 -101 67 1 c37 1 70 4 73 8 7 7 -112 241 -156 306 -16 24
-29 45 -29 48 0 5 -101 153 -140 204 -191 251 -449 495 -705 667 -188 126
-380 226 -565 295 -52 20 -104 39 -115 44 -11 4 -22 8 -25 9 -3 1 -12 4 -20 8
-14 5 -117 34 -200 57 -63 17 -157 36 -225 45 -22 4 -51 8 -65 10 -14 3 -47 7
-75 10 -27 3 -68 8 -90 11 -40 6 -443 13 -448 8z"/>
<path d="M5137 7944 c-1 -1 -47 -4 -102 -8 -55 -3 -109 -8 -121 -10 -12 -2
-45 -7 -75 -11 -30 -3 -94 -15 -144 -26 -49 -11 -101 -22 -114 -25 -140 -28
-510 -178 -641 -259 -164 -102 -215 -136 -285 -189 -78 -59 -96 -74 -200 -166
-141 -126 -295 -307 -409 -480 -72 -109 -136 -219 -136 -232 0 -2 22 -4 50 -4
l49 -1 58 96 c31 53 61 101 65 106 4 6 29 39 55 75 194 270 502 546 788 705
172 96 468 222 558 239 16 3 43 10 60 15 34 11 49 14 162 36 39 8 79 16 90 18
21 5 142 18 210 23 54 4 330 3 380 -1 70 -6 159 -16 181 -20 12 -3 39 -7 60
-11 154 -23 379 -92 572 -175 389 -166 771 -468 1017 -804 17 -22 33 -42 36
-45 4 -3 40 -59 80 -125 40 -66 74 -122 76 -124 4 -6 86 -9 95 -4 15 8 -132
251 -219 363 -290 374 -650 655 -1058 829 -55 23 -109 46 -120 51 -41 19 -256
82 -360 106 -49 11 -277 44 -350 50 -74 6 -303 12 -308 8z"/>
<path d="M5172 7409 c-34 -69 -48 -89 -65 -91 -12 0 -26 -2 -32 -3 -39 -8
-121 -19 -127 -17 -22 6 -1 -21 61 -81 37 -36 67 -68 66 -69 -2 -2 -5 -21 -8
-43 -4 -22 -10 -62 -16 -90 -5 -27 -8 -51 -7 -52 1 -2 41 17 89 42 l86 45 85
-45 c94 -50 92 -51 76 36 -22 126 -27 110 50 180 45 42 65 66 57 71 -7 3 -39
10 -70 13 -106 13 -108 14 -154 105 -23 45 -44 84 -45 85 -2 2 -22 -37 -46
-86z"/>
<path d="M4215 7029 c-22 -45 -47 -85 -55 -89 -8 -4 -42 -11 -75 -15 -73 -9
-97 -13 -101 -18 -2 -2 27 -35 65 -72 39 -38 68 -71 66 -74 -3 -6 -10 -46 -21
-121 -3 -19 -7 -41 -9 -47 -7 -20 4 -16 91 29 l81 42 83 -43 c45 -23 84 -40
87 -37 5 4 -12 129 -23 166 -2 10 24 44 66 86 l71 71 -97 16 c-53 9 -97 17
-99 19 -1 2 -21 40 -44 86 -23 45 -43 82 -44 82 -2 0 -21 -36 -42 -81z"/>
<path d="M6135 7029 c-22 -45 -47 -85 -55 -89 -8 -4 -42 -11 -75 -15 -73 -9
-97 -13 -101 -18 -2 -2 27 -35 65 -72 39 -38 68 -71 66 -74 -3 -6 -10 -46 -21
-121 -3 -19 -7 -41 -9 -47 -7 -20 4 -16 91 29 l81 42 83 -43 c45 -23 84 -40
87 -37 5 4 -12 129 -23 167 -2 9 23 42 65 84 39 38 69 70 68 71 -1 2 -44 9
-96 18 -51 8 -94 16 -96 18 -1 2 -21 40 -44 86 -23 45 -43 82 -44 82 -2 0 -21
-36 -42 -81z"/>
<path d="M1630 5400 l0 -900 3600 0 3600 0 0 900 0 900 -3600 0 -3600 0 0
-900z"/>
<path d="M10 5358 c0 -4 26 -33 58 -66 201 -206 588 -606 649 -670 l73 -77
-99 -100 c-54 -55 -124 -127 -156 -160 -31 -33 -157 -163 -279 -288 -121 -126
-222 -231 -224 -235 -1 -4 557 -7 1240 -7 l1243 0 2 276 1 276 -534 0 c-294 0
-537 3 -540 6 -3 3 -7 241 -7 529 l-2 523 -712 0 c-392 0 -713 -3 -713 -7z"/>
<path d="M9025 5360 c-2 -4 -4 -211 -4 -461 0 -250 0 -485 -1 -524 l0 -70
-540 1 -540 2 2 -277 3 -276 1243 0 c683 0 1241 3 1240 7 -2 3 -98 105 -214
225 -117 120 -240 247 -275 283 -34 36 -109 112 -165 170 l-103 105 56 60 c31
33 128 134 217 225 380 390 506 522 506 529 0 8 -1420 9 -1425 1z"/>
<path d="M4461 4036 c-17 -20 3 -56 29 -56 25 0 39 48 19 61 -20 13 -35 11
-48 -5z"/>
<path d="M6635 3807 l1 -242 27 -3 c29 -4 31 2 28 76 -1 40 14 72 33 72 8 0
38 -28 68 -62 77 -91 75 -90 108 -86 l31 3 -38 44 c-21 25 -58 67 -81 94 l-44
50 79 73 78 73 -35 1 c-30 0 -45 -10 -117 -82 l-82 -81 2 156 2 157 -30 0 -30
0 0 -243z"/>
<path d="M2840 4000 c0 -16 7 -20 38 -21 20 -1 40 -1 45 0 7 1 8 -32 8 -204 0
-166 -1 -176 -13 -174 -7 1 -28 1 -45 0 -26 -1 -33 -5 -33 -21 0 -19 7 -20
119 -20 110 0 119 1 124 20 4 17 0 20 -29 21 -19 1 -40 2 -46 3 -10 1 -13 45
-13 186 l0 184 35 3 c49 4 61 10 54 28 -5 12 -27 15 -125 15 -112 0 -119 -1
-119 -20z"/>
<path d="M5845 3793 l0 -228 23 -3 c13 -2 22 2 23 10 0 7 1 92 1 188 1 182 4
186 33 40 3 -14 7 -36 10 -50 3 -14 12 -59 22 -100 9 -41 16 -78 15 -82 -3
-11 46 -10 52 1 5 7 76 326 76 338 0 2 3 3 8 3 4 0 6 -79 4 -175 l-3 -175 25
0 24 0 0 231 0 230 -41 -3 c-26 -2 -41 -8 -42 -18 -3 -18 -33 -164 -41 -200
-6 -28 -8 -35 -19 -103 -4 -26 -10 -46 -12 -43 -3 3 -22 85 -42 183 l-37 178
-40 3 -39 3 0 -228z"/>
<path d="M3281 3882 c-30 -23 -31 -23 -31 -3 0 16 -6 21 -25 21 l-25 0 0 -170
0 -170 29 0 29 0 0 114 c0 112 6 139 38 170 20 21 88 21 108 0 19 -18 19 -18
22 -149 1 -55 3 -108 3 -118 1 -14 8 -18 29 -15 l27 3 -1 127 c0 73 -6 138
-13 155 -26 64 -129 83 -190 35z"/>
<path d="M4050 3903 c-67 -27 -100 -84 -101 -174 -3 -178 198 -248 285 -99 15
25 20 52 20 100 0 73 -19 118 -66 153 -27 20 -109 32 -138 20z m115 -68 c14
-13 25 -30 26 -37 0 -7 2 -22 5 -33 9 -42 -8 -118 -32 -142 -26 -26 -88 -32
-117 -10 -55 40 -54 191 2 234 28 22 89 16 116 -12z"/>
<path d="M4835 3903 c-69 -19 -108 -81 -109 -173 0 -74 19 -118 67 -154 23
-17 43 -21 107 -21 43 0 82 3 85 7 4 3 8 18 9 33 3 21 0 25 -13 20 -34 -14
-116 -15 -141 -3 -37 20 -60 72 -55 131 6 89 52 123 151 112 43 -5 53 -3 58
11 4 10 2 22 -3 27 -11 11 -126 18 -156 10z"/>
<path d="M5178 3894 c-80 -34 -112 -181 -58 -268 32 -53 63 -70 132 -72 71 -3
114 10 121 37 7 26 -4 30 -44 19 -87 -25 -153 -1 -170 64 -7 25 -7 41 -1 45 6
3 61 5 122 4 l112 -2 -4 53 c-9 110 -103 164 -210 120z m131 -60 c12 -15 21
-35 21 -45 0 -17 -9 -19 -90 -19 -103 0 -112 10 -61 61 40 40 100 41 130 3z"/>
<path d="M6314 3901 c-52 -13 -62 -23 -46 -48 5 -9 20 -8 62 1 80 19 116 0
124 -63 3 -30 2 -31 -33 -32 -122 -3 -177 -32 -186 -98 -12 -95 100 -146 188
-87 33 23 35 23 40 5 3 -11 14 -19 26 -19 20 0 21 5 21 135 0 79 -5 144 -11
159 -22 47 -100 67 -185 47z m140 -189 c9 -15 -13 -78 -33 -96 -17 -16 -45
-21 -94 -17 -9 0 -23 12 -29 26 -16 36 3 72 44 84 42 12 105 13 112 3z"/>
<path d="M7090 3899 c-125 -50 -133 -272 -12 -331 61 -30 185 -16 195 22 7 27
-3 31 -44 20 -86 -25 -152 -1 -171 62 -6 21 -8 41 -5 45 4 3 59 6 123 5 l116
0 -4 52 c-2 30 -13 64 -24 79 -36 50 -113 70 -174 46z m119 -65 c12 -15 21
-35 21 -45 0 -17 -9 -19 -91 -19 -89 0 -90 0 -84 23 19 66 114 91 154 41z"/>
<path d="M7525 3894 c-16 -8 -34 -22 -38 -30 -13 -22 -27 -16 -27 11 0 20 -5
25 -24 25 l-23 0 0 -170 -1 -170 29 0 29 0 0 110 c0 126 11 160 59 180 19 8
47 10 75 6 39 -6 44 -5 49 16 4 12 2 25 -3 28 -21 13 -96 9 -125 -6z"/>
<path d="M3560 3897 c0 -7 40 -117 59 -160 11 -26 20 -48 20 -50 -1 -4 13 -41
32 -84 16 -39 21 -43 53 -43 33 0 35 3 56 58 11 31 24 66 29 77 8 18 33 82 51
130 4 11 13 33 19 48 11 28 11 28 -20 25 -31 -3 -33 -7 -75 -118 -24 -63 -47
-131 -51 -150 -5 -29 -7 -32 -14 -15 -15 40 -22 60 -23 65 -1 3 -19 53 -41
113 -37 101 -41 107 -67 107 -15 0 -28 -1 -28 -3z"/>
<path d="M4375 3890 c-10 -17 5 -28 45 -32 l35 -4 0 -125 c0 -92 -3 -124 -12
-125 -7 -1 -31 -2 -53 -3 -33 -1 -40 -5 -40 -21 0 -19 7 -20 138 -20 131 0
138 1 138 20 0 17 -7 20 -41 21 -22 1 -46 1 -52 0 -15 -2 -14 -11 -16 159 l-2
135 -67 3 c-41 2 -69 -1 -73 -8z"/>
<path d="M6700 3199 c-192 -158 -448 -306 -685 -397 -77 -29 -300 -97 -351
-106 -78 -15 -144 -26 -179 -31 -22 -4 -51 -8 -65 -10 -107 -18 -375 -24 -530
-11 -76 6 -108 10 -175 22 -11 2 -47 9 -80 15 -305 55 -639 187 -895 354 l-85
55 -27 -32 c-15 -18 -27 -35 -27 -38 -1 -5 100 -71 172 -114 84 -50 248 -131
340 -167 113 -46 297 -110 297 -104 0 2 18 -2 39 -10 22 -7 56 -16 78 -19 21
-4 70 -13 108 -21 39 -7 93 -16 120 -19 28 -3 73 -9 100 -12 79 -10 382 -11
475 -3 115 11 177 20 250 34 14 3 37 8 53 10 63 11 75 14 147 34 359 98 698
270 975 493 113 91 112 90 71 122 -19 14 -36 26 -38 25 -2 0 -41 -32 -88 -70z"/>
<path d="M6944 3012 c-69 -64 -339 -262 -357 -262 -3 0 -36 -19 -73 -42 -192
-116 -563 -263 -766 -302 -12 -2 -43 -9 -68 -14 -70 -16 -245 -40 -350 -48
-177 -14 -495 -7 -561 12 -9 2 -38 7 -65 9 -27 3 -60 7 -74 10 -14 3 -36 8
-50 11 -354 69 -704 214 -1016 421 l-92 60 -36 -48 c-20 -27 -36 -52 -36 -57
0 -32 373 -248 590 -341 136 -58 402 -140 537 -166 52 -10 158 -27 193 -31 19
-2 49 -6 65 -9 47 -6 262 -18 350 -19 344 -1 757 80 1095 216 267 108 605 315
814 499 45 40 46 42 29 58 -18 15 -67 51 -89 64 -5 3 -23 -6 -40 -21z"/>
</g>
</svg>
